<svg id="visual" viewBox="0 0 900 600" width="900" height="600" xmlns="http://www.w3.org/2000/svg" xmlns:xlink="http://www.w3.org/1999/xlink" version="1.1"><rect x="0" y="0" width="900" height="600" fill="none"></rect><defs><linearGradient id="grad1_0" x1="33.3%" y1="0%" x2="100%" y2="100%"><stop offset="20%" stop-color="#080808" stop-opacity="1"></stop><stop offset="80%" stop-color="#080808" stop-opacity="1"></stop></linearGradient></defs><defs><linearGradient id="grad2_0" x1="0%" y1="0%" x2="66.7%" y2="100%"><stop offset="20%" stop-color="#080808" stop-opacity="1"></stop><stop offset="80%" stop-color="#080808" stop-opacity="1"></stop></linearGradient></defs><g transform="translate(900, 0)"><path d="M0 486.7C-62 463.3 -124.1 439.8 -167.2 403.7C-210.4 367.7 -234.6 319 -285 285C-335.3 250.9 -411.7 231.3 -449.7 186.3C-487.7 141.2 -487.2 70.6 -486.7 0L0 0Z" fill="#0b0b25"></path></g><g transform="translate(0, 600)"><path d="M0 -486.7C63.1 -479.9 126.3 -473 186.3 -449.7C246.3 -426.4 303.2 -386.8 335.9 -335.9C368.6 -285 377.1 -222.8 398.2 -164.9C419.3 -107.1 453 -53.5 486.7 0L0 0Z" fill="#0b0b25"></path></g></svg>